FFmpeg version SVN-r25716, Copyright (c) 2000-2010 the FFmpeg developers  built on Nov 10 2010 12:23:18 with gcc 4.1.2 20080704 (Red Hat 4.1.2-48)  configuration: --enable-libmp3lame --enable-shared --disable-mmx --arch=x86_64  libavutil     50.33. 0 / 50.33. 0  libavcore      0.12. 1 /  0.12. 1  libavcodec    52.94. 4 / 52.94. 4  libavformat   52.84. 0 / 52.84. 0  libavdevice   52. 2. 2 / 52. 2. 2  libavfilter    1.59. 0 /  1.59. 0  libswscale     0.12. 0 /  0.12. 0Input #0, avi, from '/RAID10/data/converted_video_files/20152.avi':  Metadata:    encoder         : CanonMVI01  Duration: 00:02:59.99, start: 0.000000, bitrate: 2101 kb/s    Stream #0.0: Video: mjpeg, yuvj422p, 320x240, 15 tbr, 15 tbn, 15 tbc    Stream #0.1: Audio: pcm_u8, 11024 Hz, 1 channels, u8, 88 kb/s[buffer @ 0xde44b0] w:320 h:240 pixfmt:yuvj422p[ffsink @ 0xdfd3d0] auto-inserting filter 'auto-inserted scaler 0' between the filter 'src' and the filter 'out'[scale @ 0xdfd6c0] w:320 h:240 fmt:yuvj422p -> w:320 h:240 fmt:yuv420p flags:0x4Output #0, flv, to '/RAID10/data/converted_video_files/20152.flv':  Metadata:    encoder         : Lavf52.84.0    Stream #0.0: Video: flv, yuv420p, 320x240, q=2-31, 600 kb/s, 1k tbn, 24 tbc    Stream #0.1: Audio: libmp3lame, 22050 Hz, 1 channels, s16, 96 kb/sStream mapping:  Stream #0.0 -> #0.0  Stream #0.1 -> #0.1Press [q] to stop encodingWarning, using s16 intermediate sample format for resamplingframe=   84 fps=  0 q=2.4 size=     473kB time=5.58 bitrate= 693.5kbits/s    frame=  166 fps=159 q=2.6 size=     914kB time=11.04 bitrate= 677.9kbits/s    frame=  240 fps=156 q=2.4 size=    1315kB time=15.94 bitrate= 675.9kbits/s    frame=  324 fps=158 q=2.3 size=    1787kB time=21.58 bitrate= 678.2kbits/s    frame=  416 fps=163 q=2.5 size=    2308kB time=27.71 bitrate= 682.4kbits/s    frame=  503 fps=165 q=2.3 size=    2797kB time=33.50 bitrate= 684.1kbits/s    frame=  552 fps=155 q=2.3 size=    3075kB time=36.75 bitrate= 685.4kbits/s    frame=  596 fps=147 q=2.5 size=    3329kB time=39.71 bitrate= 686.8kbits/s    frame=  683 fps=149 q=2.4 size=    3824kB time=45.50 bitrate= 688.6kbits/s    frame=  737 fps=146 q=2.6 size=    4135kB time=49.08 bitrate= 690.2kbits/s    frame=  810 fps=145 q=2.4 size=    4547kB time=53.94 bitrate= 690.5kbits/s    frame=  867 fps=143 q=2.5 size=    4878kB time=57.75 bitrate= 692.0kbits/s    frame=  937 fps=142 q=1.9 size=    5281kB time=62.42 bitrate= 693.1kbits/s    frame=  978 fps=138 q=2.5 size=    5509kB time=65.17 bitrate= 692.6kbits/s    frame= 1034 fps=136 q=2.4 size=    5835kB time=68.92 bitrate= 693.6kbits/s    frame= 1095 fps=136 q=2.4 size=    6182kB time=72.96 bitrate= 694.1kbits/s    frame= 1167 fps=136 q=2.6 size=    6590kB time=77.75 bitrate= 694.4kbits/s    frame= 1252 fps=138 q=2.4 size=    7076kB time=83.42 bitrate= 694.9kbits/s    frame= 1326 fps=138 q=2.5 size=    7495kB time=88.38 bitrate= 694.8kbits/s    frame= 1406 fps=139 q=2.4 size=    7958kB time=93.71 bitrate= 695.7kbits/s    frame= 1474 fps=139 q=2.6 size=    8338kB time=98.25 bitrate= 695.3kbits/s    frame= 1520 fps=137 q=2.3 size=    8604kB time=101.29 bitrate= 695.8kbits/s    frame= 1587 fps=137 q=2.6 size=    8989kB time=105.75 bitrate= 696.4kbits/s    frame= 1665 fps=138 q=2.4 size=    9428kB time=110.94 bitrate= 696.1kbits/s    frame= 1752 fps=139 q=2.3 size=    9925kB time=116.75 bitrate= 696.4kbits/s    frame= 1828 fps=139 q=2.4 size=   10368kB time=121.83 bitrate= 697.2kbits/s    frame= 1901 fps=140 q=2.4 size=   10786kB time=126.71 bitrate= 697.3kbits/s    frame= 1952 fps=138 q=2.3 size=   11073kB time=130.08 bitrate= 697.4kbits/s    frame= 2014 fps=138 q=2.6 size=   11425kB time=134.25 bitrate= 697.2kbits/s    frame= 2091 fps=138 q=2.4 size=   11874kB time=139.38 bitrate= 697.9kbits/s    frame= 2156 fps=138 q=2.4 size=   12239kB time=143.71 bitrate= 697.7kbits/s    frame= 2206 fps=137 q=2.3 size=   12524kB time=147.04 bitrate= 697.7kbits/s    frame= 2263 fps=136 q=2.5 size=   12855kB time=150.83 bitrate= 698.2kbits/s    frame= 2329 fps=136 q=1.7 size=   13237kB time=155.25 bitrate= 698.5kbits/s    frame= 2412 fps=137 q=2.5 size=   13703kB time=160.75 bitrate= 698.3kbits/s    frame= 2471 fps=136 q=2.3 size=   14040kB time=164.71 bitrate= 698.3kbits/s    frame= 2546 fps=137 q=2.4 size=   14479kB time=169.71 bitrate= 698.9kbits/s    frame= 2613 fps=136 q=2.4 size=   14855kB time=174.17 bitrate= 698.7kbits/s    frame= 2673 fps=136 q=2.4 size=   15198kB time=178.17 bitrate= 698.8kbits/s    frame= 2700 fps=136 q=2.3 Lsize=   15350kB time=179.96 bitrate= 698.8kbits/s    video:13090kB audio:2110kB global headers:0kB muxing overhead 0.988157%